<svg xmlns="http://www.w3.org/2000/svg" width="66" height="65" viewBox="0 0 66 65" fill="none">
  <path d="M44.7048 37.9167C44.9214 36.1292 45.0839 34.3417 45.0839 32.5001C45.0839 30.6584 44.9214 28.8709 44.7048 27.0834H53.8589C54.2923 28.8167 54.5631 30.6313 54.5631 32.5001C54.5631 34.3688 54.2923 36.1834 53.8589 37.9167M39.911 52.9751C41.536 49.9688 42.7819 46.7188 43.6485 43.3334H51.6381C49.0142 47.8517 44.8513 51.2742 39.911 52.9751ZM39.2339 37.9167H26.5589C26.2881 36.1292 26.1256 34.3417 26.1256 32.5001C26.1256 30.6584 26.2881 28.8438 26.5589 27.0834H39.2339C39.4777 28.8438 39.6673 30.6584 39.6673 32.5001C39.6673 34.3417 39.4777 36.1292 39.2339 37.9167ZM32.8964 54.0584C30.6485 50.8084 28.8339 47.2063 27.7235 43.3334H38.0694C36.9589 47.2063 35.1444 50.8084 32.8964 54.0584ZM22.0631 21.6667H14.1548C16.7511 17.1358 20.9111 13.7076 25.8548 12.0251C24.2298 15.0313 23.011 18.2813 22.0631 21.6667ZM14.1548 43.3334H22.0631C23.011 46.7188 24.2298 49.9688 25.8548 52.9751C20.9209 51.2751 16.7664 47.8514 14.1548 43.3334ZM11.9339 37.9167C11.5006 36.1834 11.2298 34.3688 11.2298 32.5001C11.2298 30.6313 11.5006 28.8167 11.9339 27.0834H21.0881C20.8714 28.8709 20.7089 30.6584 20.7089 32.5001C20.7089 34.3417 20.8714 36.1292 21.0881 37.9167M32.8964 10.9147C35.1444 14.1647 36.9589 17.7938 38.0694 21.6667H27.7235C28.8339 17.7938 30.6485 14.1647 32.8964 10.9147ZM51.6381 21.6667H43.6485C42.7996 18.3128 41.5445 15.075 39.911 12.0251C44.8944 13.7313 49.0381 17.1709 51.6381 21.6667ZM32.8964 5.41675C17.9194 5.41675 5.81311 17.6042 5.81311 32.5001C5.81311 39.683 8.66652 46.5718 13.7456 51.6509C16.2606 54.1658 19.2462 56.1608 22.5321 57.5218C25.818 58.8829 29.3398 59.5834 32.8964 59.5834C40.0794 59.5834 46.9681 56.73 52.0473 51.6509C57.1264 46.5718 59.9798 39.683 59.9798 32.5001C59.9798 28.9434 59.2793 25.4216 57.9182 22.1357C56.5571 18.8498 54.5622 15.8642 52.0473 13.3493C49.5323 10.8344 46.5467 8.83941 43.2608 7.47834C39.9749 6.11728 36.4531 5.41675 32.8964 5.41675Z" fill="#D72323"/>
</svg>