  <svg
    xmlns="http://www.w3.org/2000/svg"
    width="61"
    height="60"
    viewBox="0 0 61 60"
    fill="none"
    >
    <g clip-path="url(#clip0_42_853)">
    <path
    d="M39.7715 0.0583496L60.3965 10.3708V33.3689L56.6465 31.4939V14.5603L41.6465 22.0603V29.6189L37.8965 31.4939V22.0603L22.8965 14.5603V21.2107L19.1465 19.3357V10.3708L39.7715 0.0583496ZM39.7715 18.8083L44.957 16.2009L31.3926 8.43725L25.2109 11.5427L39.7715 18.8083ZM49 14.2087L54.332 11.5427L39.7715 4.2478L35.4062 6.44507L49 14.2087ZM34.1465 33.3689L30.3965 35.2439V35.2146L19.1465 40.8396V54.1697L30.3965 48.5154V52.7341L17.2715 59.2966L0.396484 50.8298V31.0251L17.2715 22.5876L34.1465 31.0251V33.3689ZM15.3965 54.1697V40.8396L4.14648 35.2146V48.5154L15.3965 54.1697ZM17.2715 37.5876L28.082 32.197L17.2715 26.7771L6.46094 32.197L17.2715 37.5876ZM34.1465 37.5583L47.2715 30.9958L60.3965 37.5583V52.9978L47.2715 59.5603L34.1465 52.9978V37.5583ZM45.3965 54.4333V45.4978L37.8965 41.7478V50.6833L45.3965 54.4333ZM56.6465 50.6833V41.7478L49.1465 45.4978V54.4333L56.6465 50.6833ZM47.2715 42.2458L54.332 38.7009L47.2715 35.1853L40.2109 38.7009L47.2715 42.2458Z"
    fill="white"
    />
    </g>
    <defs>
    <clipPath id="clip0_42_853">
    <rect
    width="60"
    height="60"
    fill="white"
    transform="translate(0.396484)"
    />
    </clipPath>
    </defs>
    </svg>