<svg xmlns="http://www.w3.org/2000/svg" width="61" height="60" viewBox="0 0 61 60" fill="none">
  <g clip-path="url(#clip0_42_847)">
    <path d="M13.3471 -0.485352C13.3471 -1.47991 13.7422 -2.43374 14.4455 -3.137C15.1488 -3.84026 16.1026 -4.23535 17.0971 -4.23535H24.5971C25.5917 -4.23535 26.5455 -3.84026 27.2488 -3.137C27.9521 -2.43374 28.3471 -1.47991 28.3471 -0.485352V0.433398C25.9393 1.47129 23.9696 3.31762 22.7784 5.6534C20.7061 5.54528 18.6443 6.01243 16.821 7.00317C14.9977 7.99391 13.4839 9.46964 12.4471 11.2671L8.69714 17.7621C7.65967 19.559 7.1393 21.6077 7.19356 23.6818C7.24783 25.7559 7.87462 27.7746 9.00464 29.5146C8.02008 31.0311 7.41551 32.7625 7.24214 34.5621C6.4701 34.7211 5.6676 34.6327 4.94864 34.3096C4.22968 33.9865 3.63083 33.445 3.23714 32.7621L-0.512862 26.2671C-1.01012 25.4059 -1.14488 24.3823 -0.887483 23.4217C-0.630091 22.461 -0.00163567 21.6419 0.859638 21.1446L1.61714 20.7059C1.77405 20.6124 1.90154 20.4767 1.98508 20.3143C2.06862 20.1518 2.10485 19.9692 2.08964 19.7871C2.00708 18.7738 2.00708 17.7555 2.08964 16.7421C2.10485 16.5601 2.06862 16.3775 1.98508 16.215C1.90154 16.0526 1.77405 15.9169 1.61714 15.8234L0.859638 15.3846C-0.00163567 14.8874 -0.630091 14.0683 -0.887483 13.1076C-1.14488 12.147 -1.01012 11.1234 -0.512862 10.2621L3.23714 3.76715C3.73443 2.90587 4.55349 2.27742 5.51414 2.02003C6.47479 1.76264 7.49834 1.89739 8.35964 2.39465L9.14714 2.84465C9.46589 3.03215 9.86714 3.00965 10.1746 2.79965C10.9996 2.23215 11.8709 1.73215 12.7884 1.29965C12.9544 1.22214 13.0953 1.09942 13.1948 0.945541C13.2942 0.791665 13.3484 0.612868 13.3509 0.429648L13.3471 -0.485352Z" fill="white"/>
    <path d="M32.806 7.01465C31.8114 7.01465 30.8576 7.40974 30.1543 8.113C29.4511 8.81626 29.056 9.77009 29.056 10.7646V11.6796C29.056 12.0546 28.831 12.3921 28.4935 12.5496C27.5834 12.9787 26.7093 13.4803 25.8797 14.0496C25.73 14.1527 25.5545 14.2119 25.3729 14.2206C25.1914 14.2292 25.011 14.1869 24.8522 14.0984L24.0647 13.6446C23.2034 13.1474 22.1799 13.0126 21.2192 13.27C20.2586 13.5274 19.4395 14.1559 18.9422 15.0171L15.1922 21.5121C14.695 22.3734 14.5602 23.397 14.8176 24.3576C15.075 25.3183 15.7034 26.1374 16.5647 26.6346L17.3222 27.0734C17.6447 27.2609 17.8247 27.6171 17.7947 27.9921C17.7122 29.0055 17.7122 30.0238 17.7947 31.0371C17.8247 31.4121 17.6447 31.7721 17.3222 31.9559L16.5647 32.3946C15.7034 32.8919 15.075 33.711 14.8176 34.6717C14.5602 35.6323 14.695 36.6559 15.1922 37.5171L18.9422 44.0121C19.4395 44.8734 20.2586 45.5019 21.2192 45.7593C22.1799 46.0167 23.2034 45.8819 24.0647 45.3847L24.8522 44.9347C25.0107 44.8456 25.1908 44.8027 25.3724 44.8106C25.5539 44.8186 25.7297 44.8771 25.8797 44.9796C26.7047 45.5471 27.576 46.0471 28.4935 46.4796C28.6595 46.5572 28.8003 46.6799 28.8998 46.8338C28.9993 46.9876 29.0534 47.1664 29.056 47.3496V48.2646C29.056 49.2592 29.4511 50.213 30.1543 50.9163C30.8576 51.6196 31.8114 52.0146 32.806 52.0146H40.306C41.3005 52.0146 42.2544 51.6196 42.9576 50.9163C43.6609 50.213 44.056 49.2592 44.056 48.2646V47.2859C44.056 46.9109 44.2735 46.5771 44.6072 46.4197C45.4947 45.9921 46.3422 45.4984 47.1497 44.9384C47.2998 44.8346 47.4761 44.7749 47.6584 44.7663C47.8407 44.7577 48.0217 44.8004 48.181 44.8896L49.0435 45.3847C49.9048 45.8819 50.9283 46.0167 51.889 45.7593C52.8496 45.5019 53.6687 44.8734 54.166 44.0121L57.916 37.5171C58.4132 36.6559 58.548 35.6323 58.2906 34.6717C58.0332 33.711 57.4047 32.8919 56.5435 32.3946L55.651 31.8809C55.4947 31.7877 55.3676 31.6526 55.2841 31.4909C55.2006 31.3292 55.164 31.1473 55.1785 30.9659C55.2535 29.9999 55.2535 29.0294 55.1785 28.0634C55.164 27.882 55.2006 27.7001 55.2841 27.5384C55.3676 27.3767 55.4947 27.2416 55.651 27.1484L56.5435 26.6346C57.4047 26.1374 58.0332 25.3183 58.2906 24.3576C58.548 23.397 58.4132 22.3734 57.916 21.5121L54.166 15.0171C53.6687 14.1559 52.8496 13.5274 51.889 13.27C50.9283 13.0126 49.9048 13.1474 49.0435 13.6446L48.181 14.1396C48.0217 14.2289 47.8407 14.2716 47.6584 14.263C47.4761 14.2543 47.2998 14.1947 47.1497 14.0909C46.3423 13.5313 45.4922 13.036 44.6072 12.6096C44.4437 12.5316 44.3052 12.4096 44.2071 12.2573C44.1091 12.1049 44.0555 11.9283 44.0522 11.7471V10.7646C44.0522 9.77009 43.6571 8.81626 42.9539 8.113C42.2506 7.40974 41.2968 7.01465 40.3022 7.01465H32.8022H32.806ZM43.9847 29.5146C43.9847 31.5038 43.1945 33.4114 41.788 34.8179C40.3815 36.2245 38.4738 37.0146 36.4847 37.0146C34.4956 37.0146 32.5879 36.2245 31.1814 34.8179C29.7749 33.4114 28.9847 31.5038 28.9847 29.5146C28.9847 27.5255 29.7749 25.6179 31.1814 24.2113C32.5879 22.8048 34.4956 22.0146 36.4847 22.0146C38.4738 22.0146 40.3815 22.8048 41.788 24.2113C43.1945 25.6179 43.9847 27.5255 43.9847 29.5146Z" fill="white"/>
  </g>
  <defs>
    <clipPath id="clip0_42_847">
      <rect width="60" height="60" fill="white" transform="translate(0.396484)"/>
    </clipPath>
  </defs>
</svg>